<?xml version="1.0" standalone="yes"?>
<svg xmlns="http://www.w3.org/2000/svg" width="1569" height="928">
<path style="fill:#ffffff; stroke:none;" d="M0 0L0 928L1569 928L1569 0L0 0z"/>
<path style="fill:#394f55; stroke:none;" d="M176 158L176 301C176 316.655 181.28 342.191 168.409 353.682C161.068 360.236 137.585 356 128 356L127.946 429L122 457L122.055 548.961L127.957 573L128 712L202 712L239 712.214L256 720L256 750L480 748C480 733.986 481.068 727.748 496 724L496 748L512 748C512 740.572 508.451 720.255 513.603 714.653C519.198 708.569 538.36 712 546 712L640 712L640 617L640 571L643 572L642.942 511.039L640.019 499.999L640 356L605 356C600.488 356 594.377 357.086 590.428 354.486C571.555 342.061 576 319.476 576 300L576 158L496 158L496 278L480.603 268.791L480 236L480 158L176 158z"/>
<path style="fill:#ffffff; stroke:none;" d="M480 353L480 478L496 478L496 389C496 373.084 498.196 358.947 480 353z"/>
<path style="fill:#b59f01; stroke:none;" d="M480 478L468.144 501.09L468 581C473.882 581 480 594.935 480 600L526 600C530.195 600 539.05 601.664 542.258 598.397C546.326 594.252 544.348 585.12 544 580L524 578L524 579L526 579C518.597 581.188 501.889 582.262 497.028 574.61C494.964 571.362 496 565.678 496 562L496 533C496 525.536 493.002 509.746 497.028 503.344C506.487 488.304 528.985 506.179 540.772 498.972C545.189 496.272 546.447 480.246 540.852 478.434C535.117 476.576 526.994 478 521 478L480 478M640 478L643 516L640 600L1495 600L1495 478L640 478M510 499L510 500L518 500L510 499z"/>
<path style="fill:#4d5c48; stroke:none;" d="M640 571L639 575L640 575L640 571z"/>
<path style="fill:#6f7131; stroke:none;" d="M640 572L641 573L640 572M639 575L640 576L639 575z"/>
<path style="fill:#4d5c48; stroke:none;" d="M638 577L639 578L638 577z"/>
<path style="fill:#b59f01; stroke:none;" d="M503 578L503 579L508 579L503 578z"/>
<path style="fill:#4d5c48; stroke:none;" d="M554 578L555 579L554 578z"/>
<path style="fill:#b59f01; stroke:none;" d="M554 579L555 580L554 579z"/>
<path style="fill:#4d5c48; stroke:none;" d="M637 579L638 580L637 579M558 584L559 585L558 584z"/>
<path style="fill:#6f7131; stroke:none;" d="M558 585L559 586L558 585z"/>
<path style="fill:#4d5c48; stroke:none;" d="M633 585L634 586L633 585M560 587L561 588L560 587z"/>
<path style="fill:#6f7131; stroke:none;" d="M628 591L629 592L628 591M625 593L626 594L625 593z"/>
<path style="fill:#ffffff; stroke:none;" d="M480 600L480 649L481 649C484.969 645.098 491.583 643.784 494.566 638.87C499.846 630.176 496 610.059 496 600L480 600z"/>
</svg>
